<?xml version="1.0" encoding="UTF-8"?>
<svg xmlns="http://www.w3.org/2000/svg" xmlns:xlink="http://www.w3.org/1999/xlink" width="24px" height="24px" viewBox="0 0 24 24" version="1.1">
<g id="surface1">
<path style=" stroke:none;fill-rule:nonzero;fill:rgb(0%,0%,0%);fill-opacity:1;" d="M 23.984375 9.203125 C 23.953125 9.101562 23.859375 8.980469 23.652344 8.945312 C 23.445312 8.910156 16.300781 7.539062 16.300781 7.539062 C 16.300781 7.539062 16.195312 7.515625 16.101562 7.46875 C 16.011719 7.421875 15.976562 7.300781 15.976562 7.300781 C 15.976562 7.300781 12.445312 0.957031 12.347656 0.769531 C 12.25 0.582031 12.105469 0.53125 12 0.53125 C 11.894531 0.53125 11.75 0.582031 11.652344 0.769531 C 11.554688 0.957031 8.023438 7.300781 8.023438 7.300781 C 8.023438 7.300781 7.988281 7.421875 7.898438 7.46875 C 7.804688 7.515625 7.699219 7.539062 7.699219 7.539062 C 7.699219 7.539062 0.554688 8.90625 0.347656 8.941406 C 0.140625 8.980469 0.046875 9.101562 0.015625 9.199219 C -0.0234375 9.363281 0.0234375 9.53125 0.140625 9.648438 L 5.503906 15.140625 C 5.503906 15.140625 5.574219 15.21875 5.621094 15.3125 C 5.636719 15.414062 5.625 15.523438 5.625 15.523438 C 5.625 15.523438 4.4375 22.765625 4.40625 22.972656 C 4.375 23.179688 4.480469 23.339844 4.566406 23.402344 C 4.648438 23.464844 4.796875 23.507812 4.984375 23.414062 C 5.175781 23.320312 11.796875 20.152344 11.796875 20.152344 C 11.796875 20.152344 11.894531 20.109375 12 20.09375 C 12.101562 20.074219 12.199219 20.152344 12.199219 20.152344 C 12.199219 20.152344 18.824219 23.320312 19.011719 23.414062 C 19.199219 23.507812 19.351562 23.464844 19.433594 23.402344 C 19.558594 23.296875 19.621094 23.132812 19.59375 22.972656 C 19.570312 22.832031 18.660156 17.296875 18.660156 17.296875 C 19.539062 16.753906 20.085938 16.257812 20.511719 15.546875 C 17.917969 16.515625 14.503906 17.265625 11.097656 17.414062 C 10.179688 17.453125 8.6875 17.511719 7.621094 17.398438 C 6.945312 17.328125 6.453125 17.253906 6.378906 16.960938 C 6.328125 16.746094 6.433594 16.5 6.925781 16.128906 L 9.785156 13.976562 C 11.070312 13.007812 13.34375 11.503906 13.34375 11.242188 C 13.34375 10.960938 11.199219 10.464844 9.308594 10.464844 C 7.363281 10.464844 7.03125 10.59375 6.496094 10.632812 C 6.007812 10.664062 5.726562 10.636719 5.691406 10.492188 C 5.632812 10.246094 5.875 10.105469 6.28125 9.925781 C 6.988281 9.609375 8.140625 9.332031 8.265625 9.300781 C 8.460938 9.246094 11.347656 8.492188 13.882812 8.765625 C 15.199219 8.902344 17.128906 9.433594 17.128906 10.039062 C 17.128906 10.382812 15.40625 11.535156 13.902344 12.636719 C 12.753906 13.480469 11.683594 14.199219 11.683594 14.324219 C 11.683594 14.667969 15.21875 15.566406 18.375 15.335938 L 18.378906 15.3125 C 18.425781 15.222656 18.496094 15.140625 18.496094 15.140625 L 23.859375 9.652344 C 23.976562 9.535156 24.023438 9.363281 23.984375 9.203125 "/>
</g>
</svg>
